<?xml version="1.0" encoding="UTF-8"?>
<svg width="521px" height="144px" viewBox="0 0 521 144" version="1.1" xmlns="http://www.w3.org/2000/svg" xmlns:xlink="http://www.w3.org/1999/xlink">
    <title>TextAndLogoPrimarySolid</title>
    <defs>
        <linearGradient x1="50%" y1="0%" x2="50%" y2="100%" id="linearGradient-1">
            <stop stop-color="#4650FF" offset="0%"></stop>
            <stop stop-color="#822DFF" offset="100%"></stop>
        </linearGradient>
    </defs>
    <g id="TextAndLogoPrimarySolid" stroke="none" stroke-width="1" fill="none" fill-rule="evenodd">
        <g id="Group-2-Copy">
            <path d="M212.6416,105.34 C213.5992,105.34 214.3048,104.9368 214.7584,104.1304 C215.212,103.324 215.1616,102.5428 214.6072,101.7868 C210.676,96.4948 205.9384,92.5888 200.3944,90.0688 C200.2936,90.0688 200.2432,90.0436 200.2432,89.9932 C200.2432,89.8924 200.2684,89.842 200.3188,89.842 C203.6956,87.4228 206.3164,84.2098 208.1812,80.203 C210.046,76.1962 210.9784,71.5972 210.9784,66.406 C210.9784,57.5356 208.66,50.593 204.0232,45.5782 C199.3864,40.5634 193.0864,38.056 185.1232,38.056 C177.16,38.056 170.8726,40.5634 166.261,45.5782 C161.6494,50.593 159.3436,57.5356 159.3436,66.406 C159.3436,75.2764 161.6494,82.219 166.261,87.2338 C170.8726,92.2486 177.16,94.756 185.1232,94.756 C189.6592,94.756 192.9226,95.1844 194.9134,96.0412 C196.9042,96.898 198.8824,98.788 200.848,101.7112 C202.4104,104.1304 204.5776,105.34 207.3496,105.34 L207.3496,105.34 L212.6416,105.34 Z M185.1232,84.172 C176.7064,84.172 172.498,78.25 172.498,66.406 C172.498,54.562 176.7064,48.64 185.1232,48.64 C193.5904,48.64 197.824,54.562 197.824,66.406 C197.824,78.25 193.5904,84.172 185.1232,84.172 Z M228.0592,94.756 C232.6456,94.756 236.5768,92.8912 239.8528,89.1616 L239.8528,89.1616 L240.004,89.0104 C240.0544,89.0104 240.0796,89.0356 240.0796,89.086 L240.0796,89.086 L240.0796,89.6908 C240.13,90.9004 240.571,91.921 241.4026,92.7526 C242.2342,93.5842 243.2548,94 244.4644,94 L244.4644,94 L247.564,94 C248.7232,94 249.7312,93.5716 250.588,92.7148 C251.4448,91.858 251.8732,90.85 251.8732,89.6908 L251.8732,89.6908 L251.8732,58.9972 C251.8732,57.838 251.4448,56.83 250.588,55.9732 C249.7312,55.1164 248.7232,54.688 247.564,54.688 L247.564,54.688 L243.9352,54.688 C242.776,54.688 241.768,55.1164 240.9112,55.9732 C240.0544,56.83 239.626,57.838 239.626,58.9972 L239.626,58.9972 L239.626,78.3508 C239.626,80.014 238.8952,81.5638 237.4336,83.0002 C235.972,84.4366 234.3592,85.1548 232.5952,85.1548 C230.68,85.1548 229.3318,84.613 228.5506,83.5294 C227.7694,82.4458 227.3788,80.4424 227.3788,77.5192 L227.3788,77.5192 L227.3788,58.9972 C227.3788,57.838 226.9504,56.83 226.0936,55.9732 C225.2368,55.1164 224.2288,54.688 223.0696,54.688 L223.0696,54.688 L219.7432,54.688 C218.584,54.688 217.576,55.1164 216.7192,55.9732 C215.8624,56.83 215.434,57.838 215.434,58.9972 L215.434,58.9972 L215.434,78.3508 C215.434,84.3484 216.4294,88.582 218.4202,91.0516 C220.411,93.5212 223.624,94.756 228.0592,94.756 Z M282.7132,94.756 C287.1988,94.756 290.878,92.9542 293.7508,89.3506 C296.6236,85.747 298.06,80.7448 298.06,74.344 C298.06,67.792 296.674,62.752 293.902,59.224 C291.13,55.696 287.4004,53.932 282.7132,53.932 C278.5804,53.932 274.8256,55.4692 271.4488,58.5436 C271.3984,58.594 271.348,58.6192 271.2976,58.6192 C271.2472,58.6192 271.222,58.594 271.222,58.5436 L271.222,58.5436 L271.222,41.6092 C271.222,40.45 270.8062,39.442 269.9746,38.5852 C269.143,37.7284 268.1476,37.3 266.9884,37.3 L266.9884,37.3 L263.284,37.3 C262.1248,37.3 261.1294,37.7284 260.2978,38.5852 C259.4662,39.442 259.0504,40.45 259.0504,41.6092 L259.0504,41.6092 L259.0504,89.6908 C259.0504,90.85 259.4662,91.858 260.2978,92.7148 C261.1294,93.5716 262.1248,94 263.284,94 L263.284,94 L266.1568,94 C267.3664,94 268.387,93.5842 269.2186,92.7526 C270.0502,91.921 270.4912,90.9004 270.5416,89.6908 L270.5416,89.6908 L270.5416,89.086 C270.5416,89.0356 270.5668,89.0104 270.6172,89.0104 L270.6172,89.0104 L270.7684,89.1616 C273.9436,92.8912 277.9252,94.756 282.7132,94.756 Z M278.5552,85.684 C276.5392,85.684 274.7752,85.0036 273.2632,83.6428 C271.7512,82.282 270.9952,80.7448 270.9952,79.0312 L270.9952,79.0312 L270.9952,69.6568 C270.9952,67.9432 271.7512,66.406 273.2632,65.0452 C274.7752,63.6844 276.5392,63.004 278.5552,63.004 C283.5952,63.004 286.1152,66.784 286.1152,74.344 C286.1152,78.1744 285.4348,81.022 284.074,82.8868 C282.7132,84.7516 280.8736,85.684 278.5552,85.684 Z M322.096,94.756 C325.2208,94.756 328.2448,94.4788 331.168,93.9244 C332.3776,93.7228 333.373,93.1054 334.1542,92.0722 C334.9354,91.039 335.326,89.8924 335.326,88.6324 L335.326,88.6324 L335.326,88.4812 C335.326,87.4228 334.9102,86.566 334.0786,85.9108 C333.247,85.2556 332.302,85.054 331.2436,85.306 C328.6228,85.9612 326.1784,86.2888 323.9104,86.2888 C320.4328,86.2888 317.8246,85.6966 316.0858,84.5122 C314.347,83.3278 313.276,81.3496 312.8728,78.5776 C312.772,78.124 312.9736,77.8972 313.4776,77.8972 L313.4776,77.8972 L333.6628,77.8972 C334.8724,77.8972 335.9434,77.4814 336.8758,76.6498 C337.8082,75.8182 338.2744,74.7976 338.2744,73.588 C338.0728,60.484 331.9744,53.932 319.9792,53.932 C313.7296,53.932 308.9542,55.6834 305.653,59.1862 C302.3518,62.689 300.7012,67.7416 300.7012,74.344 C300.7012,80.9968 302.5534,86.062 306.2578,89.5396 C309.9622,93.0172 315.2416,94.756 322.096,94.756 Z M326.1784,70.6396 L313.402,70.6396 C313.0492,70.6396 312.8728,70.438 312.8728,70.0348 C313.1752,67.162 313.906,65.1334 315.0652,63.949 C316.2244,62.7646 317.938,62.1724 320.206,62.1724 C324.4396,62.1724 326.6572,64.768 326.8588,69.9592 C326.8588,70.4128 326.632,70.6396 326.1784,70.6396 L326.1784,70.6396 Z M365.4208,94.756 C369.1504,94.756 372.7036,94.3528 376.0804,93.5464 C376.8364,93.3448 377.4538,92.929 377.9326,92.299 C378.4114,91.669 378.6508,90.9508 378.6508,90.1444 C378.6508,89.4892 378.3862,88.9726 377.857,88.5946 C377.3278,88.2166 376.7356,88.1284 376.0804,88.33 C373.0564,89.2372 369.6796,89.6908 365.95,89.6908 C360.3556,89.6908 355.8826,87.637 352.531,83.5294 C349.1794,79.4218 347.5036,73.714 347.5036,66.406 C347.5036,59.0476 349.1164,53.3272 352.342,49.2448 C355.5676,45.1624 360.028,43.1212 365.7232,43.1212 C369.4024,43.1212 372.7288,43.5748 375.7024,44.482 C376.3576,44.6836 376.9498,44.5954 377.479,44.2174 C378.0082,43.8394 378.2728,43.3228 378.2728,42.6676 C378.2728,41.8612 378.0334,41.1304 377.5546,40.4752 C377.0758,39.82 376.4584,39.3916 375.7024,39.19 C372.628,38.434 369.1252,38.056 365.194,38.056 C357.7348,38.056 351.901,40.5508 347.6926,45.5404 C343.4842,50.53 341.38,57.4852 341.38,66.406 C341.38,75.3772 343.5724,82.345 347.9572,87.3094 C352.342,92.2738 358.1632,94.756 365.4208,94.756 Z M393.7768,94 C394.6336,94 395.3392,93.6976 395.8936,93.0928 C396.4984,92.488 396.8008,91.7824 396.8008,90.976 L396.8008,90.976 L396.8008,40.324 C396.8008,39.5176 396.511,38.812 395.9314,38.2072 C395.3518,37.6024 394.6336,37.3 393.7768,37.3 C392.92,37.3 392.2018,37.6024 391.6222,38.2072 C391.0426,38.812 390.7528,39.5176 390.7528,40.324 L390.7528,40.324 L390.7528,90.976 C390.7528,91.7824 391.0426,92.488 391.6222,93.0928 C392.2018,93.6976 392.92,94 393.7768,94 Z M423.3316,94.756 C428.9764,94.756 433.3864,92.9668 436.5616,89.3884 C439.7368,85.81 441.3244,80.7952 441.3244,74.344 C441.3244,67.8928 439.7368,62.878 436.5616,59.2996 C433.3864,55.7212 428.9764,53.932 423.3316,53.932 C417.6868,53.932 413.2768,55.7212 410.1016,59.2996 C406.9264,62.878 405.3388,67.8928 405.3388,74.344 C405.3388,80.7952 406.9264,85.81 410.1016,89.3884 C413.2768,92.9668 417.6868,94.756 423.3316,94.756 Z M423.3316,90.22 C415.2676,90.22 411.2356,84.928 411.2356,74.344 C411.2356,63.76 415.2676,58.468 423.3316,58.468 C431.3956,58.468 435.4276,63.76 435.4276,74.344 C435.4276,84.928 431.3956,90.22 423.3316,90.22 Z M459.1612,94.756 C464.302,94.756 468.6112,92.5636 472.0888,88.1788 C472.1392,88.1284 472.1896,88.1032 472.24,88.1032 C472.2904,88.1032 472.3156,88.1284 472.3156,88.1788 L472.3156,88.1788 L472.3156,91.2784 C472.3156,92.0344 472.5928,92.677 473.1472,93.2062 C473.7016,93.7354 474.3568,94 475.1128,94 C475.8688,94 476.5114,93.7354 477.0406,93.2062 C477.5698,92.677 477.8344,92.0344 477.8344,91.2784 L477.8344,91.2784 L477.8344,57.5608 C477.8344,56.7544 477.5572,56.074 477.0028,55.5196 C476.4484,54.9652 475.768,54.688 474.9616,54.688 C474.1552,54.688 473.4622,54.9652 472.8826,55.5196 C472.303,56.074 472.0132,56.7544 472.0132,57.5608 L472.0132,57.5608 L472.0132,79.0312 C472.0132,81.8032 470.8036,84.361 468.3844,86.7046 C465.9652,89.0482 463.3948,90.22 460.6732,90.22 C457.6996,90.22 455.5324,89.3758 454.1716,87.6874 C452.8108,85.999 452.1304,82.8868 452.1304,78.3508 L452.1304,78.3508 L452.1304,57.5608 C452.1304,56.7544 451.8532,56.074 451.2988,55.5196 C450.7444,54.9652 450.064,54.688 449.2576,54.688 C448.4512,54.688 447.7834,54.9652 447.2542,55.5196 C446.725,56.074 446.4604,56.7544 446.4604,57.5608 L446.4604,57.5608 L446.4604,79.1068 C446.4604,84.7012 447.481,88.708 449.5222,91.1272 C451.5634,93.5464 454.7764,94.756 459.1612,94.756 Z M499.6024,94.756 C504.6424,94.756 508.8508,92.6644 512.2276,88.4812 C512.278,88.4308 512.3284,88.4056 512.3788,88.4056 C512.4292,88.4056 512.4544,88.4308 512.4544,88.4812 L512.4544,88.4812 L512.4544,91.2784 C512.4544,92.0344 512.7316,92.677 513.286,93.2062 C513.8404,93.7354 514.4956,94 515.2516,94 C516.0076,94 516.6502,93.7354 517.1794,93.2062 C517.7086,92.677 517.9732,92.0344 517.9732,91.2784 L517.9732,91.2784 L517.9732,40.1728 C517.9732,39.3664 517.696,38.686 517.1416,38.1316 C516.5872,37.5772 515.9068,37.3 515.1004,37.3 C514.294,37.3 513.601,37.5772 513.0214,38.1316 C512.4418,38.686 512.152,39.3664 512.152,40.1728 L512.152,40.1728 L512.152,59.7532 C512.152,59.8036 512.1268,59.8288 512.0764,59.8288 C512.026,59.8288 511.9756,59.8036 511.9252,59.7532 C508.6492,55.8724 504.5416,53.932 499.6024,53.932 C494.7136,53.932 490.8454,55.7086 487.9978,59.2618 C485.1502,62.815 483.7264,67.8424 483.7264,74.344 C483.7264,80.644 485.2006,85.621 488.149,89.275 C491.0974,92.929 494.9152,94.756 499.6024,94.756 Z M500.812,90.22 C497.2336,90.22 494.449,88.8844 492.4582,86.2132 C490.4674,83.542 489.472,79.5856 489.472,74.344 C489.472,63.76 493.252,58.468 500.812,58.468 C503.7856,58.468 506.419,59.5012 508.7122,61.5676 C511.0054,63.634 512.152,65.9524 512.152,68.5228 L512.152,68.5228 L512.152,80.1652 C512.152,82.786 510.9928,85.117 508.6744,87.1582 C506.356,89.1994 503.7352,90.22 500.812,90.22 Z" id="QubeCloud" fill="#3E396B" fill-rule="nonzero"></path>
            <g id="LogoPrimarySolid">
                <rect id="Rectangle" fill="url(#linearGradient-1)" fill-rule="evenodd" x="0" y="0" width="144" height="144" rx="11.370996"></rect>
                <path d="M29,49.8725644 L59.8632845,67.7979671 C60.213671,68.0014716 60.429292,68.3760549 60.429292,68.781252 L60.429292,123 L60.429292,123 M84.8908615,109.164039 L84.8908615,54.9452911 C84.8908615,54.5400939 84.6752405,54.1655106 84.324854,53.9620061 L53.4615695,36.0366035 L53.4615695,36.0366035 M76.570708,23 L107.433993,40.9254026 C107.784379,41.1289071 108,41.5034904 108,41.9086876 L108,96.1274356 L108,96.1274356" id="Shape" stroke="#FFFFFF" stroke-width="13.6451952" stroke-linecap="round"></path>
            </g>
        </g>
    </g>
</svg>