<?xml version="1.0" encoding="UTF-8"?>
<svg width="490px" height="117px" viewBox="0 0 490 117" version="1.1" xmlns="http://www.w3.org/2000/svg" xmlns:xlink="http://www.w3.org/1999/xlink">
    <title>TextAndLogoPrimary</title>
    <defs>
        <linearGradient x1="50%" y1="0%" x2="50%" y2="82.9207137%" id="linearGradient-1">
            <stop stop-color="#4359FF" offset="0%"></stop>
            <stop stop-color="#7642FF" offset="100%"></stop>
        </linearGradient>
    </defs>
    <g id="TextAndLogoPrimary" stroke="none" stroke-width="1" fill="none" fill-rule="evenodd">
        <g id="Group-2-Copy" transform="translate(8.000000, 3.000000)">
            <path d="M173.6416,92.34 C174.5992,92.34 175.3048,91.9368 175.7584,91.1304 C176.212,90.324 176.1616,89.5428 175.6072,88.7868 C171.676,83.4948 166.9384,79.5888 161.3944,77.0688 C161.2936,77.0688 161.2432,77.0436 161.2432,76.9932 C161.2432,76.8924 161.2684,76.842 161.3188,76.842 C164.6956,74.4228 167.3164,71.2098 169.1812,67.203 C171.046,63.1962 171.9784,58.5972 171.9784,53.406 C171.9784,44.5356 169.66,37.593 165.0232,32.5782 C160.3864,27.5634 154.0864,25.056 146.1232,25.056 C138.16,25.056 131.8726,27.5634 127.261,32.5782 C122.6494,37.593 120.3436,44.5356 120.3436,53.406 C120.3436,62.2764 122.6494,69.219 127.261,74.2338 C131.8726,79.2486 138.16,81.756 146.1232,81.756 C150.6592,81.756 153.9226,82.1844 155.9134,83.0412 C157.9042,83.898 159.8824,85.788 161.848,88.7112 C163.4104,91.1304 165.5776,92.34 168.3496,92.34 L168.3496,92.34 L173.6416,92.34 Z M146.1232,71.172 C137.7064,71.172 133.498,65.25 133.498,53.406 C133.498,41.562 137.7064,35.64 146.1232,35.64 C154.5904,35.64 158.824,41.562 158.824,53.406 C158.824,65.25 154.5904,71.172 146.1232,71.172 Z M189.0592,81.756 C193.6456,81.756 197.5768,79.8912 200.8528,76.1616 L200.8528,76.1616 L201.004,76.0104 C201.0544,76.0104 201.0796,76.0356 201.0796,76.086 L201.0796,76.086 L201.0796,76.6908 C201.13,77.9004 201.571,78.921 202.4026,79.7526 C203.2342,80.5842 204.2548,81 205.4644,81 L205.4644,81 L208.564,81 C209.7232,81 210.7312,80.5716 211.588,79.7148 C212.4448,78.858 212.8732,77.85 212.8732,76.6908 L212.8732,76.6908 L212.8732,45.9972 C212.8732,44.838 212.4448,43.83 211.588,42.9732 C210.7312,42.1164 209.7232,41.688 208.564,41.688 L208.564,41.688 L204.9352,41.688 C203.776,41.688 202.768,42.1164 201.9112,42.9732 C201.0544,43.83 200.626,44.838 200.626,45.9972 L200.626,45.9972 L200.626,65.3508 C200.626,67.014 199.8952,68.5638 198.4336,70.0002 C196.972,71.4366 195.3592,72.1548 193.5952,72.1548 C191.68,72.1548 190.3318,71.613 189.5506,70.5294 C188.7694,69.4458 188.3788,67.4424 188.3788,64.5192 L188.3788,64.5192 L188.3788,45.9972 C188.3788,44.838 187.9504,43.83 187.0936,42.9732 C186.2368,42.1164 185.2288,41.688 184.0696,41.688 L184.0696,41.688 L180.7432,41.688 C179.584,41.688 178.576,42.1164 177.7192,42.9732 C176.8624,43.83 176.434,44.838 176.434,45.9972 L176.434,45.9972 L176.434,65.3508 C176.434,71.3484 177.4294,75.582 179.4202,78.0516 C181.411,80.5212 184.624,81.756 189.0592,81.756 Z M243.7132,81.756 C248.1988,81.756 251.878,79.9542 254.7508,76.3506 C257.6236,72.747 259.06,67.7448 259.06,61.344 C259.06,54.792 257.674,49.752 254.902,46.224 C252.13,42.696 248.4004,40.932 243.7132,40.932 C239.5804,40.932 235.8256,42.4692 232.4488,45.5436 C232.3984,45.594 232.348,45.6192 232.2976,45.6192 C232.2472,45.6192 232.222,45.594 232.222,45.5436 L232.222,45.5436 L232.222,28.6092 C232.222,27.45 231.8062,26.442 230.9746,25.5852 C230.143,24.7284 229.1476,24.3 227.9884,24.3 L227.9884,24.3 L224.284,24.3 C223.1248,24.3 222.1294,24.7284 221.2978,25.5852 C220.4662,26.442 220.0504,27.45 220.0504,28.6092 L220.0504,28.6092 L220.0504,76.6908 C220.0504,77.85 220.4662,78.858 221.2978,79.7148 C222.1294,80.5716 223.1248,81 224.284,81 L224.284,81 L227.1568,81 C228.3664,81 229.387,80.5842 230.2186,79.7526 C231.0502,78.921 231.4912,77.9004 231.5416,76.6908 L231.5416,76.6908 L231.5416,76.086 C231.5416,76.0356 231.5668,76.0104 231.6172,76.0104 L231.6172,76.0104 L231.7684,76.1616 C234.9436,79.8912 238.9252,81.756 243.7132,81.756 Z M239.5552,72.684 C237.5392,72.684 235.7752,72.0036 234.2632,70.6428 C232.7512,69.282 231.9952,67.7448 231.9952,66.0312 L231.9952,66.0312 L231.9952,56.6568 C231.9952,54.9432 232.7512,53.406 234.2632,52.0452 C235.7752,50.6844 237.5392,50.004 239.5552,50.004 C244.5952,50.004 247.1152,53.784 247.1152,61.344 C247.1152,65.1744 246.4348,68.022 245.074,69.8868 C243.7132,71.7516 241.8736,72.684 239.5552,72.684 Z M283.096,81.756 C286.2208,81.756 289.2448,81.4788 292.168,80.9244 C293.3776,80.7228 294.373,80.1054 295.1542,79.0722 C295.9354,78.039 296.326,76.8924 296.326,75.6324 L296.326,75.6324 L296.326,75.4812 C296.326,74.4228 295.9102,73.566 295.0786,72.9108 C294.247,72.2556 293.302,72.054 292.2436,72.306 C289.6228,72.9612 287.1784,73.2888 284.9104,73.2888 C281.4328,73.2888 278.8246,72.6966 277.0858,71.5122 C275.347,70.3278 274.276,68.3496 273.8728,65.5776 C273.772,65.124 273.9736,64.8972 274.4776,64.8972 L274.4776,64.8972 L294.6628,64.8972 C295.8724,64.8972 296.9434,64.4814 297.8758,63.6498 C298.8082,62.8182 299.2744,61.7976 299.2744,60.588 C299.0728,47.484 292.9744,40.932 280.9792,40.932 C274.7296,40.932 269.9542,42.6834 266.653,46.1862 C263.3518,49.689 261.7012,54.7416 261.7012,61.344 C261.7012,67.9968 263.5534,73.062 267.2578,76.5396 C270.9622,80.0172 276.2416,81.756 283.096,81.756 Z M287.1784,57.6396 L274.402,57.6396 C274.0492,57.6396 273.8728,57.438 273.8728,57.0348 C274.1752,54.162 274.906,52.1334 276.0652,50.949 C277.2244,49.7646 278.938,49.1724 281.206,49.1724 C285.4396,49.1724 287.6572,51.768 287.8588,56.9592 C287.8588,57.4128 287.632,57.6396 287.1784,57.6396 L287.1784,57.6396 Z M326.4208,81.756 C330.1504,81.756 333.7036,81.3528 337.0804,80.5464 C337.8364,80.3448 338.4538,79.929 338.9326,79.299 C339.4114,78.669 339.6508,77.9508 339.6508,77.1444 C339.6508,76.4892 339.3862,75.9726 338.857,75.5946 C338.3278,75.2166 337.7356,75.1284 337.0804,75.33 C334.0564,76.2372 330.6796,76.6908 326.95,76.6908 C321.3556,76.6908 316.8826,74.637 313.531,70.5294 C310.1794,66.4218 308.5036,60.714 308.5036,53.406 C308.5036,46.0476 310.1164,40.3272 313.342,36.2448 C316.5676,32.1624 321.028,30.1212 326.7232,30.1212 C330.4024,30.1212 333.7288,30.5748 336.7024,31.482 C337.3576,31.6836 337.9498,31.5954 338.479,31.2174 C339.0082,30.8394 339.2728,30.3228 339.2728,29.6676 C339.2728,28.8612 339.0334,28.1304 338.5546,27.4752 C338.0758,26.82 337.4584,26.3916 336.7024,26.19 C333.628,25.434 330.1252,25.056 326.194,25.056 C318.7348,25.056 312.901,27.5508 308.6926,32.5404 C304.4842,37.53 302.38,44.4852 302.38,53.406 C302.38,62.3772 304.5724,69.345 308.9572,74.3094 C313.342,79.2738 319.1632,81.756 326.4208,81.756 Z M354.7768,81 C355.6336,81 356.3392,80.6976 356.8936,80.0928 C357.4984,79.488 357.8008,78.7824 357.8008,77.976 L357.8008,77.976 L357.8008,27.324 C357.8008,26.5176 357.511,25.812 356.9314,25.2072 C356.3518,24.6024 355.6336,24.3 354.7768,24.3 C353.92,24.3 353.2018,24.6024 352.6222,25.2072 C352.0426,25.812 351.7528,26.5176 351.7528,27.324 L351.7528,27.324 L351.7528,77.976 C351.7528,78.7824 352.0426,79.488 352.6222,80.0928 C353.2018,80.6976 353.92,81 354.7768,81 Z M384.3316,81.756 C389.9764,81.756 394.3864,79.9668 397.5616,76.3884 C400.7368,72.81 402.3244,67.7952 402.3244,61.344 C402.3244,54.8928 400.7368,49.878 397.5616,46.2996 C394.3864,42.7212 389.9764,40.932 384.3316,40.932 C378.6868,40.932 374.2768,42.7212 371.1016,46.2996 C367.9264,49.878 366.3388,54.8928 366.3388,61.344 C366.3388,67.7952 367.9264,72.81 371.1016,76.3884 C374.2768,79.9668 378.6868,81.756 384.3316,81.756 Z M384.3316,77.22 C376.2676,77.22 372.2356,71.928 372.2356,61.344 C372.2356,50.76 376.2676,45.468 384.3316,45.468 C392.3956,45.468 396.4276,50.76 396.4276,61.344 C396.4276,71.928 392.3956,77.22 384.3316,77.22 Z M420.1612,81.756 C425.302,81.756 429.6112,79.5636 433.0888,75.1788 C433.1392,75.1284 433.1896,75.1032 433.24,75.1032 C433.2904,75.1032 433.3156,75.1284 433.3156,75.1788 L433.3156,75.1788 L433.3156,78.2784 C433.3156,79.0344 433.5928,79.677 434.1472,80.2062 C434.7016,80.7354 435.3568,81 436.1128,81 C436.8688,81 437.5114,80.7354 438.0406,80.2062 C438.5698,79.677 438.8344,79.0344 438.8344,78.2784 L438.8344,78.2784 L438.8344,44.5608 C438.8344,43.7544 438.5572,43.074 438.0028,42.5196 C437.4484,41.9652 436.768,41.688 435.9616,41.688 C435.1552,41.688 434.4622,41.9652 433.8826,42.5196 C433.303,43.074 433.0132,43.7544 433.0132,44.5608 L433.0132,44.5608 L433.0132,66.0312 C433.0132,68.8032 431.8036,71.361 429.3844,73.7046 C426.9652,76.0482 424.3948,77.22 421.6732,77.22 C418.6996,77.22 416.5324,76.3758 415.1716,74.6874 C413.8108,72.999 413.1304,69.8868 413.1304,65.3508 L413.1304,65.3508 L413.1304,44.5608 C413.1304,43.7544 412.8532,43.074 412.2988,42.5196 C411.7444,41.9652 411.064,41.688 410.2576,41.688 C409.4512,41.688 408.7834,41.9652 408.2542,42.5196 C407.725,43.074 407.4604,43.7544 407.4604,44.5608 L407.4604,44.5608 L407.4604,66.1068 C407.4604,71.7012 408.481,75.708 410.5222,78.1272 C412.5634,80.5464 415.7764,81.756 420.1612,81.756 Z M460.6024,81.756 C465.6424,81.756 469.8508,79.6644 473.2276,75.4812 C473.278,75.4308 473.3284,75.4056 473.3788,75.4056 C473.4292,75.4056 473.4544,75.4308 473.4544,75.4812 L473.4544,75.4812 L473.4544,78.2784 C473.4544,79.0344 473.7316,79.677 474.286,80.2062 C474.8404,80.7354 475.4956,81 476.2516,81 C477.0076,81 477.6502,80.7354 478.1794,80.2062 C478.7086,79.677 478.9732,79.0344 478.9732,78.2784 L478.9732,78.2784 L478.9732,27.1728 C478.9732,26.3664 478.696,25.686 478.1416,25.1316 C477.5872,24.5772 476.9068,24.3 476.1004,24.3 C475.294,24.3 474.601,24.5772 474.0214,25.1316 C473.4418,25.686 473.152,26.3664 473.152,27.1728 L473.152,27.1728 L473.152,46.7532 C473.152,46.8036 473.1268,46.8288 473.0764,46.8288 C473.026,46.8288 472.9756,46.8036 472.9252,46.7532 C469.6492,42.8724 465.5416,40.932 460.6024,40.932 C455.7136,40.932 451.8454,42.7086 448.9978,46.2618 C446.1502,49.815 444.7264,54.8424 444.7264,61.344 C444.7264,67.644 446.2006,72.621 449.149,76.275 C452.0974,79.929 455.9152,81.756 460.6024,81.756 Z M461.812,77.22 C458.2336,77.22 455.449,75.8844 453.4582,73.2132 C451.4674,70.542 450.472,66.5856 450.472,61.344 C450.472,50.76 454.252,45.468 461.812,45.468 C464.7856,45.468 467.419,46.5012 469.7122,48.5676 C472.0054,50.634 473.152,52.9524 473.152,55.5228 L473.152,55.5228 L473.152,67.1652 C473.152,69.786 471.9928,72.117 469.6744,74.1582 C467.356,76.1994 464.7352,77.22 461.812,77.22 Z" id="QubeCloud" fill="#3E396B" fill-rule="nonzero"></path>
            <g id="LogoPrimary" transform="translate(-8.000000, -1.000000)" stroke="url(#linearGradient-1)" stroke-linecap="round" stroke-width="13.6451952">
                <path d="M8,33.8725644 L38.8632845,51.7979671 C39.213671,52.0014716 39.429292,52.3760549 39.429292,52.781252 L39.429292,107 L39.429292,107 M63.8908615,93.164039 L63.8908615,38.9452911 C63.8908615,38.5400939 63.6752405,38.1655106 63.324854,37.9620061 L32.4615695,20.0366035 L32.4615695,20.0366035 M55.570708,7 L86.4339925,24.9254026 C86.784379,25.1289071 87,25.5034904 87,25.9086876 L87,80.1274356 L87,80.1274356" id="Shape"></path>
            </g>
        </g>
    </g>
</svg>