<?xml version="1.0" encoding="UTF-8"?>
<svg width="67px" height="13px" viewBox="0 0 67 13" version="1.1" xmlns="http://www.w3.org/2000/svg" xmlns:xlink="http://www.w3.org/1999/xlink">
    <!-- Generator: Sketch 59.1 (86144) - https://sketch.com -->
    <title>QubeCloud</title>
    <desc>Created with Sketch.</desc>
    <g id="Welcome" stroke="none" stroke-width="1" fill="none" fill-rule="evenodd">
        <path d="M3.73925781,11.0117188 L4.06215072,11.0184702 C4.35978083,11.0297227 4.72879309,11.0550409 5.16919091,11.094425 L6.295689,11.20245 C6.91460898,11.2575877 7.39774855,11.2851562 7.74511719,11.2851562 C8.1598328,11.2851562 8.51985524,11.2395838 8.82519531,11.1484375 C8.93001354,11.344402 8.98242188,11.5654285 8.98242188,11.8115234 C8.98242188,12.0895196 8.91862043,12.2706702 8.79101562,12.3549805 C8.66341082,12.4392908 8.45605612,12.4814453 8.16894531,12.4814453 C7.70136485,12.4814453 7.03630244,12.4085408 6.17374139,12.2627297 L5.87890625,12.2114258 C4.87173976,12.0314119 4.11979415,11.9414062 3.62304688,11.9414062 C3.19921663,11.9414062 2.8300797,11.9960932 2.515625,12.1054688 C2.41080677,11.9049469 2.35839844,11.7044281 2.35839844,11.5039062 C2.35839844,11.3489576 2.38574191,11.2430016 2.44042969,11.1860352 C2.49511746,11.1290687 2.61474517,11.0857749 2.79931641,11.0561523 C2.98388764,11.0265298 3.29719831,11.0117188 3.73925781,11.0117188 Z M0.79296875,5.86425781 C0.79296875,4.02310277 1.16552362,2.67415793 1.91064453,1.81738281 C2.65576544,0.960607695 3.70734998,0.532226562 5.06542969,0.532226562 C6.30501922,0.532226562 7.24836916,0.843258608 7.89550781,1.46533203 C8.54264646,2.08740545 8.86621094,3.24608527 8.86621094,4.94140625 C8.86621094,6.78256129 8.49365607,8.13150613 7.74853516,8.98828125 C7.00341424,9.84505637 5.95182971,10.2734375 4.59375,10.2734375 C3.35416047,10.2734375 2.41081053,9.96354477 1.76367188,9.34375 C1.11653322,8.72395523 0.79296875,7.5641361 0.79296875,5.86425781 Z M2.46777344,5.23535156 C2.46777344,6.80306773 2.67398882,7.86832401 3.08642578,8.43115234 C3.49886274,8.99398068 4.11067303,9.27539062 4.921875,9.27539062 C5.67383188,9.27539062 6.24006971,8.99056274 6.62060547,8.42089844 C7.00114123,7.85123413 7.19140625,6.90104832 7.19140625,5.5703125 C7.19140625,3.98436707 6.98519086,2.91455355 6.57275391,2.36083984 C6.16031695,1.80712614 5.54850666,1.53027344 4.73730469,1.53027344 C3.9853478,1.53027344 3.41910998,1.81510132 3.03857422,2.38476562 C2.65803846,2.95442993 2.46777344,3.90461574 2.46777344,5.23535156 Z M16.0912483,4.252495 L16.0917969,7.25195312 L16.094835,7.68052995 C16.1049623,8.34576931 16.1404077,8.76573263 16.2011719,8.94042969 C16.2740889,9.15006615 16.4199208,9.2434897 16.6386719,9.22070312 C16.6933596,9.33007867 16.7207031,9.43717396 16.7207031,9.54199219 C16.7207031,9.71061282 16.5908216,9.84049434 16.3310547,9.93164062 C16.0712878,10.0227869 15.8183606,10.0683594 15.5722656,10.0683594 C15.4127596,10.0683594 15.2965498,10.0364587 15.2236328,9.97265625 C15.1507158,9.90885385 15.0367846,9.7356785 14.8818359,9.453125 C14.5172508,9.66276146 14.1401387,9.82910095 13.7504883,9.95214844 C13.3608379,10.0751959 12.9518251,10.1367188 12.5234375,10.1367188 C11.9583305,10.1367188 11.5196956,9.98063307 11.2075195,9.66845703 C10.8953435,9.35628099 10.7392578,8.78320729 10.7392578,7.94921875 L10.7230314,5.23012408 C10.7207133,5.12879161 10.7181468,5.04736359 10.715332,4.98583984 C10.6993814,4.63720529 10.6617842,4.39681056 10.6025391,4.26464844 C10.543294,4.13248632 10.4658208,4.05045589 10.3701172,4.01855469 C10.2744136,3.98665349 10.1695969,3.97070312 10.0556641,3.97070312 C9.99641897,3.87499952 9.96679688,3.76790424 9.96679688,3.64941406 C9.96679688,3.48990806 10.0784494,3.38053415 10.3017578,3.32128906 C10.5250662,3.26204397 10.834959,3.23242188 11.2314453,3.23242188 L11.5128586,3.238878 C11.6784401,3.24748617 11.7999671,3.26470256 11.8774414,3.29052734 C11.9936529,3.32926452 12.0665689,3.39306596 12.0961914,3.48193359 C12.1225226,3.56092704 12.1371508,3.80645584 12.1400764,4.2185263 L12.140625,6.95800781 C12.140625,7.89225728 12.2443023,8.50292825 12.4516602,8.79003906 C12.659018,9.07714987 12.9472638,9.22070312 13.3164062,9.22070312 C13.5761732,9.22070312 13.8291003,9.16601617 14.0751953,9.05664062 C14.3212903,8.94726508 14.4864905,8.79459733 14.5708008,8.59863281 C14.6445723,8.42716386 14.6860683,8.11613149 14.6952896,7.66552811 L14.6911133,5.63949104 C14.6883789,5.35001279 14.6847331,5.1378262 14.6801758,5.00292969 C14.6687825,4.66568842 14.6368818,4.42529369 14.5844727,4.28173828 C14.5320635,4.13818288 14.4625655,4.05045589 14.3759766,4.01855469 C14.2893876,3.98665349 14.1777351,3.97070312 14.0410156,3.97070312 C13.9817705,3.87499952 13.9521484,3.76790424 13.9521484,3.64941406 C13.9521484,3.48990806 14.0694975,3.38053415 14.3041992,3.32128906 C14.5389009,3.26204397 14.831704,3.23242188 15.1826172,3.23242188 L15.4640305,3.238878 C15.629612,3.24748617 15.7511389,3.26470256 15.8286133,3.29052734 C15.9448248,3.32926452 16.0177407,3.39876252 16.0473633,3.49902344 C16.0736944,3.58814425 16.0883227,3.8392993 16.0912483,4.252495 Z M19.8447266,6.609375 L19.8515625,8.81738281 C20.0019539,8.9404303 20.1944975,9.03841109 20.4291992,9.11132812 C20.6639009,9.18424516 20.9248033,9.22070312 21.2119141,9.22070312 C21.7861357,9.22070312 22.1951485,9.03499535 22.4389648,8.66357422 C22.6827812,8.29215309 22.8046875,7.6302131 22.8046875,6.67773438 C22.8001302,5.81184463 22.6770845,5.1567405 22.4355469,4.71240234 C22.1940092,4.26806418 21.8112005,4.04589844 21.2871094,4.04589844 C20.9453108,4.04589844 20.6673188,4.11539644 20.453125,4.25439453 C20.2389312,4.39339262 20.0851242,4.59049352 19.9916992,4.84570312 C19.8982743,5.10091273 19.8492839,5.68879748 19.8447266,6.609375 Z M18.4487,6.74481352 L18.4461387,4.05808862 C18.4422753,3.26355999 18.4356522,2.71148477 18.4262695,2.40185547 L18.4113159,2.04147239 C18.3933716,1.71548344 18.3664553,1.49267638 18.3305664,1.37304688 C18.2827146,1.21354087 18.2029628,1.11100283 18.0913086,1.06542969 C17.9796544,1.01985654 17.8372404,0.997070312 17.6640625,0.997070312 C17.6048174,0.855793564 17.5751953,0.716797559 17.5751953,0.580078125 C17.5751953,0.438801377 17.6321609,0.349935078 17.7460938,0.313476562 C17.83724,0.28430975 18.0960919,0.266809837 18.5226551,0.260976545 L18.8740234,0.258789062 C19.2340513,0.258789062 19.4778639,0.275878735 19.6054688,0.310058594 C19.7330736,0.344238452 19.8059895,0.408039897 19.8242188,0.501464844 C19.842448,0.59488979 19.8515625,0.755532715 19.8515625,0.983398438 L19.7558594,3.74511719 C20.0429702,3.54915267 20.3699526,3.39762423 20.7368164,3.29052734 C21.1036802,3.18343045 21.5149717,3.12988281 21.9707031,3.12988281 C22.6953161,3.12988281 23.2729471,3.36799892 23.7036133,3.84423828 C24.1342795,4.32047764 24.3496094,5.12141364 24.3496094,6.24707031 C24.3496094,7.52311836 24.0681994,8.49039384 23.5053711,9.14892578 C22.9425428,9.80745772 22.1210992,10.1367188 21.0410156,10.1367188 C20.6673158,10.1367188 20.3266617,10.104818 20.019043,10.0410156 C19.7114242,9.97721322 19.4710295,9.90429729 19.2978516,9.82226562 L19.0859375,10.0341797 C18.7805974,10.0341797 18.5903324,10.0000003 18.5151367,9.93164062 C18.439941,9.86328091 18.4023438,9.73567802 18.4023438,9.54882812 L18.4168173,8.76311843 L18.4168173,8.76311843 L18.4367371,7.89666683 C18.4427185,7.55088276 18.4467062,7.16693261 18.4487,6.74481352 L18.4487,6.74481352 Z M28.5605469,4.04589844 C28.1048154,4.04589844 27.7584647,4.20881999 27.5214844,4.53466797 C27.284504,4.86051595 27.1546225,5.3697882 27.1318359,6.0625 L28.2989259,6.06030577 C28.7979217,6.05518588 29.1528671,6.04110616 29.3637695,6.01806641 C29.6349297,5.98844386 29.7921547,5.93945347 29.8354492,5.87109375 C29.8787437,5.80273403 29.9003906,5.67513114 29.9003906,5.48828125 C29.9003906,5.03710712 29.7864595,4.68392055 29.5585938,4.42871094 C29.330728,4.17350133 28.9980491,4.04589844 28.5605469,4.04589844 Z M28.8203125,3.12988281 C29.667973,3.12988281 30.2968729,3.33040164 30.7070312,3.73144531 C31.1171896,4.13248898 31.3222656,4.79328967 31.3222656,5.71386719 C31.3222656,6.11946817 31.2493497,6.40201743 31.1035156,6.56152344 C30.9576816,6.72102944 30.6386743,6.80078125 30.1464844,6.80078125 L27.125,6.80078125 C27.1341146,7.54362351 27.2833644,8.12695101 27.5727539,8.55078125 C27.8621434,8.97461149 28.3736942,9.18652344 29.1074219,9.18652344 C29.791019,9.18652344 30.4267549,9.00879084 31.0146484,8.65332031 C31.210613,8.84928483 31.3085938,9.05663953 31.3085938,9.27539062 C31.3085938,9.58073069 31.0568059,9.79492126 30.5532227,9.91796875 C30.0496394,10.0410162 29.481123,10.1025391 28.8476562,10.1025391 C27.6809837,10.1025391 26.8435898,9.85530846 26.3354492,9.36083984 C25.8273087,8.86637123 25.5732422,8.0335345 25.5732422,6.86230469 C25.5732422,5.70930413 25.8592094,4.79899422 26.4311523,4.13134766 C27.0030953,3.46370109 27.7994741,3.12988281 28.8203125,3.12988281 Z M37.0712891,9.13867188 C37.882491,9.13867188 38.6116504,8.92903855 39.2587891,8.50976562 C39.5003267,8.76041792 39.6210938,9.02245957 39.6210938,9.29589844 C39.6210938,9.55110805 39.3271514,9.75504481 38.7392578,9.90771484 C38.1513642,10.0603849 37.4449911,10.1367188 36.6201172,10.1367188 C35.3030533,10.1367188 34.3323599,9.82682602 33.7080078,9.20703125 C33.0836557,8.58723648 32.7714844,7.4615967 32.7714844,5.83007812 C32.7714844,4.01170966 33.1383427,2.67415793 33.8720703,1.81738281 C34.6057979,0.960607695 35.6858653,0.532226562 37.1123047,0.532226562 C37.9052774,0.532226562 38.5045553,0.596028008 38.9101562,0.723632812 C39.3157572,0.851237617 39.5185547,1.06770681 39.5185547,1.37304688 C39.5185547,1.62369917 39.3932304,1.87206908 39.1425781,2.11816406 C38.3222615,1.72623502 37.5361366,1.53027344 36.7841797,1.53027344 C36.0094362,1.53027344 35.4261087,1.80940476 35.0341797,2.36767578 C34.6422506,2.9259468 34.4462891,3.87043605 34.4462891,5.20117188 C34.4462891,6.67318444 34.6525044,7.6974255 35.0649414,8.27392578 C35.4773784,8.85042606 36.1461542,9.13867188 37.0712891,9.13867188 Z M41.6332311,7.26883645 L41.6373169,5.43172255 C41.6354246,3.87624669 41.6264362,2.86629943 41.6103516,2.40185547 L41.5939026,2.04147239 C41.5746766,1.71548344 41.5471193,1.49267638 41.5112305,1.37304688 C41.4633787,1.21354087 41.3847662,1.11100283 41.2753906,1.06542969 C41.1660151,1.01985654 41.0224618,0.997070312 40.8447266,0.997070312 C40.7854815,0.855793564 40.7558594,0.716797559 40.7558594,0.580078125 C40.7558594,0.438801377 40.8139643,0.349935078 40.9301758,0.313476562 C41.023145,0.28430975 41.2816323,0.266809837 41.7056434,0.260976545 L42.0546875,0.258789062 C42.4147153,0.258789062 42.658528,0.275878735 42.7861328,0.310058594 C42.9137376,0.344238452 42.9866536,0.408039897 43.0048828,0.501464844 C43.0194662,0.576204801 43.0282162,0.693964264 43.0311328,0.854745701 L43.0322266,6.70507812 L43.0413411,7.72211544 C43.0504557,8.34899553 43.0656466,8.8735873 43.0869141,9.29589844 L43.8457031,9.29589844 C43.9003909,9.41438861 43.9277344,9.5419915 43.9277344,9.67871094 C43.9277344,9.80175843 43.9026695,9.88606748 43.8525391,9.93164062 C43.8024086,9.97721377 43.7067064,10 43.5654297,10 L40.8447266,10 C40.7854815,9.85416594 40.7558594,9.71744855 40.7558594,9.58984375 C40.7558594,9.48958283 40.7809242,9.41552758 40.8310547,9.36767578 C40.8811851,9.31982398 40.9632156,9.29589844 41.0771484,9.29589844 L41.5830078,9.29589844 L41.6150949,8.44977724 C41.6234655,8.11193406 41.6295108,7.71828762 41.6332311,7.26883645 L41.6332311,7.26883645 Z M48.1455078,9.22070312 C48.6650417,9.22070312 49.0410145,9.02474154 49.2734375,8.6328125 C49.5058605,8.24088346 49.6220703,7.63704835 49.6220703,6.82128906 C49.6220703,5.88248229 49.5024426,5.18522363 49.2631836,4.72949219 C49.0239246,4.27376074 48.6126331,4.04589844 48.0292969,4.04589844 C47.509763,4.04589844 47.1337902,4.24186002 46.9013672,4.63378906 C46.6689442,5.02571811 46.5527344,5.63183184 46.5527344,6.45214844 C46.5527344,7.3863979 46.6723621,8.08137793 46.9116211,8.53710938 C47.1508801,8.99284082 47.5621716,9.22070312 48.1455078,9.22070312 Z M47.8857422,10.1367188 C46.896805,10.1367188 46.1699242,9.8746771 45.7050781,9.35058594 C45.2402321,8.82649478 45.0078125,8.03581258 45.0078125,6.97851562 C45.0078125,5.76171267 45.2892224,4.8160841 45.8520508,4.14160156 C46.4148791,3.46711902 47.2272082,3.12988281 48.2890625,3.12988281 C49.2779997,3.12988281 50.0048805,3.39192446 50.4697266,3.91601562 C50.9345726,4.44010679 51.1669922,5.23306761 51.1669922,6.29492188 C51.1669922,7.50716752 50.8855822,8.45051746 50.3227539,9.125 C49.7599256,9.79948254 48.9475965,10.1367188 47.8857422,10.1367188 Z M58.2080078,4.41503906 L58.2080078,7.25195312 C58.2080078,8.16797333 58.2444658,8.73079322 58.3173828,8.94042969 C58.3902998,9.15006615 58.5361317,9.2434897 58.7548828,9.22070312 C58.8095706,9.33007867 58.8369141,9.43717396 58.8369141,9.54199219 C58.8369141,9.71061282 58.7070325,9.84049434 58.4472656,9.93164062 C58.1874987,10.0227869 57.9345715,10.0683594 57.6884766,10.0683594 C57.5289706,10.0683594 57.4127608,10.0364587 57.3398438,9.97265625 C57.2669267,9.90885385 57.1529956,9.7356785 56.9980469,9.453125 C56.6334617,9.66276146 56.2563496,9.82910095 55.8666992,9.95214844 C55.4770488,10.0751959 55.068036,10.1367188 54.6396484,10.1367188 C54.0745414,10.1367188 53.6359065,9.98063307 53.3237305,9.66845703 C53.0115544,9.35628099 52.8554688,8.78320729 52.8554688,7.94921875 L52.8392423,5.23012408 C52.8369242,5.12879161 52.8343578,5.04736359 52.831543,4.98583984 C52.8155924,4.63720529 52.7779951,4.39681056 52.71875,4.26464844 C52.6595049,4.13248632 52.5820317,4.05045589 52.4863281,4.01855469 C52.3906245,3.98665349 52.2858079,3.97070312 52.171875,3.97070312 C52.1126299,3.87499952 52.0830078,3.76790424 52.0830078,3.64941406 C52.0830078,3.48990806 52.1946603,3.38053415 52.4179688,3.32128906 C52.6412772,3.26204397 52.9511699,3.23242188 53.3476562,3.23242188 L53.6290696,3.238878 C53.794651,3.24748617 53.916178,3.26470256 53.9936523,3.29052734 C54.1098639,3.32926452 54.1827798,3.39306596 54.2124023,3.48193359 C54.2387335,3.56092704 54.2533617,3.80645584 54.2562874,4.2185263 L54.2568359,6.95800781 C54.2568359,7.89225728 54.3605133,8.50292825 54.5678711,8.79003906 C54.7752289,9.07714987 55.0634747,9.22070312 55.4326172,9.22070312 C55.6923841,9.22070312 55.9453113,9.16601617 56.1914062,9.05664062 C56.4375012,8.94726508 56.6027014,8.79459733 56.6870117,8.59863281 C56.7607832,8.42716386 56.8022792,8.11613149 56.8115006,7.66552811 L56.8073242,5.63949104 C56.8045899,5.35001279 56.800944,5.1378262 56.7963867,5.00292969 C56.7849934,4.66568842 56.7530927,4.42529369 56.7006836,4.28173828 C56.6482745,4.13818288 56.5787765,4.05045589 56.4921875,4.01855469 C56.4055985,3.98665349 56.293946,3.97070312 56.1572266,3.97070312 C56.0979815,3.87499952 56.0683594,3.76790424 56.0683594,3.64941406 C56.0683594,3.48990806 56.1857085,3.38053415 56.4204102,3.32128906 C56.6551119,3.26204397 56.9479149,3.23242188 57.2988281,3.23242188 L57.5802415,3.238878 C57.7458229,3.24748617 57.8673499,3.26470256 57.9448242,3.29052734 C58.0610357,3.32926452 58.1339517,3.39876252 58.1635742,3.49902344 L58.1811283,3.59624557 C58.199048,3.74511661 58.2080078,4.01804634 58.2080078,4.41503906 Z M63.1298828,4.04589844 C62.5830051,4.04589844 62.187664,4.23616346 61.9438477,4.61669922 C61.7000313,4.99723498 61.578125,5.65461772 61.578125,6.58886719 C61.578125,7.40918379 61.6943348,8.0528948 61.9267578,8.52001953 C62.1591808,8.98714426 62.551104,9.22070312 63.1025391,9.22070312 C63.3942072,9.22070312 63.6608061,9.16259824 63.9023438,9.04638672 C64.1438814,8.9301752 64.3090816,8.77750746 64.3979492,8.58837891 C64.4868169,8.39925036 64.53125,7.93327194 64.53125,7.19042969 L64.53125,4.40136719 C64.3671867,4.3102209 64.1678072,4.22819047 63.9331055,4.15527344 C63.6984038,4.08235641 63.4306656,4.04589844 63.1298828,4.04589844 Z M64.7226562,9.453125 C64.3079406,9.69921998 63.9205747,9.87467396 63.5605469,9.97949219 C63.200519,10.0843104 62.8291035,10.1367188 62.4462891,10.1367188 C61.6715456,10.1367188 61.0756857,9.9042992 60.6586914,9.43945312 C60.2416971,8.97460705 60.0332031,8.16797449 60.0332031,7.01953125 C60.0332031,5.75259783 60.3111951,4.78760097 60.8671875,4.12451172 C61.4231799,3.46142247 62.2548773,3.12988281 63.3623047,3.12988281 C63.6266289,3.12988281 63.8476554,3.14355455 64.0253906,3.17089844 C64.2031259,3.19824232 64.371744,3.23242167 64.53125,3.2734375 C64.53125,2.93619623 64.5232748,2.57503448 64.5073242,2.18994141 C64.4913736,1.80484833 64.4594729,1.53255288 64.4116211,1.37304688 C64.3637693,1.21354087 64.2840175,1.11100283 64.1723633,1.06542969 C64.0607091,1.01985654 63.9182951,0.997070312 63.7451172,0.997070312 C63.6858721,0.855793564 63.65625,0.716797559 63.65625,0.580078125 C63.65625,0.438801377 63.7132156,0.349935078 63.8271484,0.313476562 C63.9182947,0.28430975 64.1771466,0.266809837 64.6037098,0.260976545 L64.9550781,0.258789062 C65.315106,0.258789062 65.5589186,0.275878735 65.6865234,0.310058594 C65.8141282,0.344238452 65.8870442,0.408039897 65.9052734,0.501464844 C65.9235027,0.59488979 65.9326172,0.755532715 65.9326172,0.983398438 L65.9326172,5.87792969 C65.9326172,7.61882381 65.9724931,8.63281106 66.0522461,8.91992188 C66.1319991,9.20703269 66.2561841,9.33235695 66.4248047,9.29589844 C66.4886071,9.40071667 66.5205078,9.50325471 66.5205078,9.60351562 C66.5205078,9.73112043 66.3689794,9.85188745 66.065918,9.96582031 C65.7628566,10.0797532 65.515626,10.1367188 65.3242188,10.1367188 C65.2102859,10.1367188 65.1145837,10.0968428 65.0371094,10.0170898 C64.959635,9.93733684 64.8548184,9.74935044 64.7226562,9.453125 Z" id="QubeCloud" fill="#000000" fill-rule="nonzero"></path>
    </g>
</svg>